# xmcd
#
# Track frame offsets:
#	150
#	16664
#	34033
#	48812
#	65122
#	77371
#	92643
#	109172
#	125162
#	142495
#	159009
#	176378
#	191157
#	207467
#	219716
#	234988
#	251517
#	267507
#
# Disc length: 3797 seconds
#
# Revision: 1
# Processed by: cddbd v1.5.2PL0 Copyright (c) Steve Scherf et al.
# Submitted via: audiograbber 1.83.01
#
DISCID=fe0ed312
DTITLE=Various Artist - PHMC1302
DYEAR=2013
DGENRE=Country
TTITLE0=Jerrod Niemann - Only God Could Love You More
TTITLE1=Hunter Hayes - Cry With You
TTITLE2=Lee Brice - That's When You Know It's Over
TTITLE3=Greg Bates - Brothers
TTITLE4=Roys, The - Still Standing
TTITLE5=Amber Hayes - I Built This Wall
TTITLE6=Bucky Covington - Mexocoma
TTITLE7=Billy Ray Cyrus - I'm So Miserable
TTITLE8=Liana Conway - Free
TTITLE9=Jerrod Niemann - Only God Could Love You More /Vocals
TTITLE10=Hunter Hayes - Cry With You - Vocals
TTITLE11=Lee Brice - That's When You Know It's Over /Vocals
TTITLE12=Greg Bates - Brothers /Vocals
TTITLE13=Roys, The - Still Standing /Vocals
TTITLE14=Amber Hayes - I Built This Wall /Vocals
TTITLE15=Bucky Covington - Mexocoma /Vocals
TTITLE16=Billy Ray Cyrus - I'm So Miserable /Vocas
TTITLE17=Liana Conway - Free /Vocals
EXTD=
EXTT0=
EXTT1=
EXTT2=
EXTT3=
EXTT4=
EXTT5=
EXTT6=
EXTT7=
EXTT8=
EXTT9=
EXTT10=
EXTT11=
EXTT12=
EXTT13=
EXTT14=
EXTT15=
EXTT16=
EXTT17=
PLAYORDER=
